<svg aria-hidden="true" style="position: absolute; width: 0; height: 0; overflow: hidden;" version="1.1" xmlns="http://www.w3.org/2000/svg" xmlns:xlink="http://www.w3.org/1999/xlink">
<defs>

<symbol id="icon-vector-scrol" viewBox="0 0 53 32">
<path d="M29.191 20.979c-0.331 0.333-0.724 0.598-1.157 0.778s-0.898 0.273-1.367 0.273c-0.469 0-0.934-0.093-1.367-0.273s-0.826-0.445-1.157-0.778l-16.284-16.32c-0.33-0.333-0.724-0.598-1.157-0.778s-0.898-0.273-1.367-0.273-0.934 0.093-1.367 0.273c-0.433 0.181-0.827 0.445-1.157 0.778-0.662 0.666-1.034 1.567-1.034 2.507s0.372 1.84 1.034 2.507l16.32 16.32c2 1.997 4.711 3.12 7.538 3.12s5.538-1.122 7.538-3.12l16.32-16.32c0.657-0.662 1.027-1.556 1.031-2.489 0.003-0.468-0.087-0.932-0.264-1.365s-0.438-0.827-0.767-1.159c-0.331-0.333-0.724-0.598-1.157-0.778s-0.898-0.273-1.367-0.273c-0.469 0-0.934 0.093-1.367 0.273s-0.827 0.445-1.157 0.778l-16.284 16.32z"></path>

<symbol id="icon-x" viewBox="0 0 32 32">
<path fill="none" stroke="#111" stroke-width="2" stroke-miterlimit="4" stroke-linecap="round" stroke-linejoin="round" style="stroke: var(--color1, #fff)" d="M22.667 9.333l-13.333 13.333M9.333 9.333l13.333 13.333"></path>
</symbol>
<symbol id="icon-slider-button" viewBox="0 0 32 32">
<path d="M16 32c8.837 0 16-7.163 16-16s-7.163-16-16-16c-8.837 0-16 7.163-16 16s7.163 16 16 16z"></path>
</symbol>
<symbol id="icon-slider-ellipse" viewBox="0 0 69 32">
<path fill="#fd9222" style="fill: var(--color2, #fd9222)" d="M52.923 0h-36.923c-8.837 0-16 7.163-16 16s7.163 16 16 16h36.923c8.837 0 16-7.163 16-16s-7.163-16-16-16z"></path>

</symbol>
<symbol id="icon-arrow-down" viewBox="0 0 32 32">
<path fill="#fff" style="fill: var(--color1, #fff)" d="M16 32c8.837 0 16-7.163 16-16s-7.163-16-16-16c-8.837 0-16 7.163-16 16s7.163 16 16 16z"></path>
<path fill="#fd9222" style="fill: var(--color2, #fd9222)" d="M16.548 17.081c-0.072 0.072-0.157 0.13-0.251 0.169s-0.195 0.059-0.297 0.059-0.203-0.020-0.297-0.059c-0.094-0.039-0.179-0.097-0.251-0.169l-3.535-3.543c-0.072-0.072-0.157-0.13-0.251-0.169s-0.195-0.059-0.297-0.059-0.203 0.020-0.297 0.059c-0.094 0.039-0.179 0.097-0.251 0.169-0.144 0.145-0.225 0.34-0.225 0.544s0.081 0.4 0.225 0.544l3.543 3.543c0.434 0.434 1.023 0.677 1.636 0.677s1.202-0.244 1.636-0.677l3.543-3.543c0.143-0.144 0.223-0.338 0.224-0.54 0.001-0.102-0.019-0.202-0.057-0.296s-0.095-0.18-0.167-0.252c-0.072-0.072-0.157-0.13-0.251-0.169s-0.195-0.059-0.297-0.059-0.203 0.020-0.297 0.059c-0.094 0.039-0.179 0.097-0.251 0.169l-3.535 3.543z"></path>
</symbol>
<symbol id="icon-burger-menu" viewBox="0 0 47 32">
<path d="M0.809 0.647c-0.22 0.115-0.406 0.263-0.559 0.44l-0.002 0.002-0.247 0.3v2.467l0.332 0.332c0.636 0.636-1.54 0.583 23.293 0.56l22.106-0.019 0.407-0.225 0.407-0.227v-3.375l-0.806-0.401-22.307 0.001c-21.533 0.001-22.319 0.007-22.624 0.145zM1.068 14.075c-0.359 0.109-0.742 0.384-0.909 0.653-0.141 0.23-0.159 0.384-0.159 1.412 0 1.004 0.020 1.187 0.151 1.401 0.217 0.355 0.735 0.628 1.364 0.72 0.742 0.108 43.081 0.108 43.821 0 0.295-0.042 0.679-0.156 0.854-0.252l0.316-0.175v-3.408l-0.698-0.39-22.263-0.013c-12.246-0.007-22.361 0.016-22.477 0.051zM1.219 27.581c-0.394 0.078-0.73 0.283-0.972 0.571l-0.002 0.003-0.244 0.279v2.497l0.332 0.332c0.636 0.634-1.54 0.582 23.293 0.56 20.793-0.019 22.122-0.028 22.378-0.154 0.573-0.285 0.543-0.17 0.543-2.022v-1.673l-0.892-0.438-22.071-0.012c-12.748-0.007-22.193 0.016-22.364 0.057z"></path>
</symbol>
<symbol id="icon-close" viewBox="0 0 32 32">
<path fill="#fcf1e0" style="fill: var(--color3, #fcf1e0)" d="M30.4 15.2c0 8.395-6.805 15.2-15.2 15.2s-15.2-6.805-15.2-15.2c0-8.395 6.805-15.2 15.2-15.2s15.2 6.805 15.2 15.2z"></path>
<path fill="none" stroke="#000" stroke-width="1.6" stroke-miterlimit="4" stroke-linecap="round" stroke-linejoin="round" style="stroke: var(--color4, #000)" d="M19.6 10.8l-8.8 8.8"></path>
<path fill="none" stroke="#000" stroke-width="1.6" stroke-miterlimit="4" stroke-linecap="round" stroke-linejoin="round" style="stroke: var(--color4, #000)" d="M10.8 10.8l8.8 8.8"></path>
</symbol>
<symbol id="icon-spoon" viewBox="0 0 32 32">
<path fill="#fd9222" style="fill: var(--color2, #fd9222)" d="M15.451 14.106c-0.783-0.95-1.177-2.116-1.177-3.282 0-4.324 5.181-8.642 10.362-8.642 2.86 0 5.181 2.321 5.181 5.182 0 5.182-4.317 10.364-8.646 10.364-1.166 0-2.332-0.394-3.281-1.177l-12.758 12.761c-0.675 0.675-1.77 0.675-2.445 0s-0.675-1.771 0-2.445l12.764-12.761z"></path>
</symbol>
<symbol id="icon-coin" viewBox="0 0 32 32">
<path fill="#fd9222" style="fill: var(--color2, #fd9222)" d="M16 0.762c-8.381 0-15.238 6.857-15.238 15.238s6.857 15.238 15.238 15.238c8.381 0 15.238-6.857 15.238-15.238s-6.857-15.238-15.238-15.238zM16 28.191c-6.705 0-12.19-5.486-12.19-12.19s5.486-12.191 12.19-12.191c6.705 0 12.19 5.486 12.19 12.191s-5.486 12.19-12.191 12.19z"></path>
<path fill="#fd9222" style="fill: var(--color2, #fd9222)" d="M17.981 14.476h-3.962c-0.762 0-1.371-0.61-1.371-1.371s0.61-1.371 1.371-1.371h5.638c0.914 0 1.524-0.61 1.524-1.524s-0.61-1.524-1.524-1.524h-2.133v-1.371c0-0.914-0.61-1.524-1.524-1.524s-1.524 0.61-1.524 1.524v1.371h-0.457c-2.438 0-4.419 1.981-4.419 4.419s1.981 4.419 4.419 4.419h3.809c0.762 0 1.371 0.61 1.371 1.371s-0.61 1.371-1.371 1.371h-5.638c-0.914 0-1.524 0.61-1.524 1.524s0.61 1.524 1.524 1.524h2.286v1.371c0 0.914 0.61 1.524 1.524 1.524s1.524-0.61 1.524-1.524v-1.371h0.457c2.438 0 4.419-1.981 4.419-4.419s-1.981-4.419-4.419-4.419z"></path>
</symbol>
<symbol id="icon-chocolate-bar" viewBox="0 0 32 32">
<path fill="#000" style="fill: var(--color4, #000)" d="M13.597 0.456l8.306 8.316 0.088-0.088c0.174-0.17 0.407-0.267 0.65-0.27s0.478 0.089 0.656 0.255l0.963 0.963c0.337 0.337 0.348 0.85 0.092 1.207l-0.004 0.008-0.158 0.212 6.797 6.797c0.607 0.607 0.607 1.578 0 2.185l-10.406 10.406c-0.607 0.607-1.578 0.607-2.185 0l-4.907-4.907c-0.081 0.103-0.184 0.187-0.3 0.247s-0.244 0.095-0.375 0.103c-0.131 0.007-0.262-0.013-0.384-0.060s-0.234-0.119-0.326-0.212l-2.869-2.869c-0.17-0.174-0.267-0.407-0.27-0.65s0.089-0.478 0.255-0.656l0.007-0.008 0.085-0.084-8.306-8.306c-0.607-0.607-0.607-1.578 0-2.185l10.405-10.405c0.607-0.607 1.578-0.607 2.185 0v0.001zM20.86 9.813l-1.938-1.937c-0.061-0.063-0.134-0.113-0.214-0.147s-0.167-0.052-0.255-0.052c-0.087 0-0.174 0.018-0.255 0.052s-0.154 0.084-0.214 0.147l-3.95 3.95c-0.063 0.062-0.112 0.136-0.146 0.217s-0.051 0.169-0.051 0.257 0.017 0.176 0.051 0.257c0.034 0.081 0.084 0.155 0.146 0.217l1.93 1.93 0.673-0.673-1.727-1.727 3.542-3.553 1.731 1.737 0.676-0.676zM15.258 15.41l-1.935-1.935c-0.061-0.063-0.134-0.113-0.214-0.147s-0.167-0.052-0.255-0.052c-0.088 0-0.174 0.018-0.255 0.052s-0.153 0.084-0.214 0.147l-3.961 3.961c-0.265 0.254-0.265 0.673 0 0.938l1.933 1.933 0.68-0.68-1.732-1.726 3.553-3.542 1.726 1.725 0.675-0.674zM8.079 6.834l3.95 3.95c0.265 0.265 0.684 0.265 0.938-0.011l3.95-3.95c0.063-0.060 0.113-0.132 0.147-0.211s0.052-0.165 0.052-0.252h0.011c0-0.166-0.066-0.342-0.199-0.474l-3.95-3.95c-0.062-0.063-0.136-0.113-0.217-0.147s-0.169-0.051-0.257-0.051c-0.088 0-0.176 0.018-0.257 0.051s-0.155 0.084-0.217 0.147l-3.95 3.961c-0.265 0.254-0.265 0.673 0 0.938zM2.485 12.428l3.95 3.95c0.265 0.265 0.684 0.265 0.938 0l3.95-3.95c0.064-0.061 0.115-0.135 0.149-0.216s0.051-0.17 0.050-0.258h0.011c0-0.177-0.066-0.342-0.199-0.474l-3.95-3.95c-0.061-0.063-0.134-0.113-0.214-0.147s-0.167-0.052-0.255-0.052c-0.087 0-0.174 0.018-0.255 0.052s-0.153 0.084-0.214 0.147l-3.961 3.961c-0.265 0.254-0.265 0.673 0 0.938zM10.135 22.088l2.606 2.607 10.633-14.389-0.723-0.723-12.516 12.504z"></path>
<path fill="#fd9222" style="fill: var(--color2, #fd9222)" d="M13.597 0.456l8.306 8.316 0.088-0.088c0.174-0.17 0.407-0.267 0.65-0.27s0.478 0.089 0.656 0.255l0.963 0.963c0.337 0.337 0.348 0.85 0.092 1.207l-0.004 0.008-0.158 0.212 6.797 6.797c0.607 0.607 0.607 1.578 0 2.185l-10.406 10.406c-0.607 0.607-1.578 0.607-2.185 0l-4.907-4.907c-0.081 0.103-0.184 0.187-0.3 0.247s-0.244 0.095-0.375 0.103c-0.131 0.007-0.262-0.013-0.384-0.060s-0.234-0.119-0.326-0.212l-2.869-2.869c-0.17-0.174-0.267-0.407-0.27-0.65s0.089-0.478 0.255-0.656l0.007-0.008 0.085-0.084-8.306-8.306c-0.607-0.607-0.607-1.578 0-2.185l10.405-10.405c0.607-0.607 1.578-0.607 2.185 0v0.001zM20.86 9.813l-1.938-1.937c-0.061-0.063-0.134-0.113-0.214-0.147s-0.167-0.052-0.255-0.052c-0.087 0-0.174 0.018-0.255 0.052s-0.154 0.084-0.214 0.147l-3.95 3.95c-0.063 0.062-0.112 0.136-0.146 0.217s-0.051 0.169-0.051 0.257 0.017 0.176 0.051 0.257c0.034 0.081 0.084 0.155 0.146 0.217l1.93 1.93 0.673-0.673-1.727-1.727 3.542-3.553 1.731 1.737 0.676-0.676zM15.258 15.41l-1.935-1.935c-0.061-0.063-0.134-0.113-0.214-0.147s-0.167-0.052-0.255-0.052c-0.088 0-0.174 0.018-0.255 0.052s-0.153 0.084-0.214 0.147l-3.961 3.961c-0.265 0.254-0.265 0.673 0 0.938l1.933 1.933 0.68-0.68-1.732-1.726 3.553-3.542 1.726 1.725 0.675-0.674zM8.079 6.834l3.95 3.95c0.265 0.265 0.684 0.265 0.938-0.011l3.95-3.95c0.063-0.060 0.113-0.132 0.147-0.211s0.052-0.165 0.052-0.252h0.011c0-0.166-0.066-0.342-0.199-0.474l-3.95-3.95c-0.062-0.063-0.136-0.113-0.217-0.147s-0.169-0.051-0.257-0.051c-0.088 0-0.176 0.018-0.257 0.051s-0.155 0.084-0.217 0.147l-3.95 3.961c-0.265 0.254-0.265 0.673 0 0.938zM2.485 12.428l3.95 3.95c0.265 0.265 0.684 0.265 0.938 0l3.95-3.95c0.064-0.061 0.115-0.135 0.149-0.216s0.051-0.17 0.050-0.258h0.011c0-0.177-0.066-0.342-0.199-0.474l-3.95-3.95c-0.061-0.063-0.134-0.113-0.214-0.147s-0.167-0.052-0.255-0.052c-0.087 0-0.174 0.018-0.255 0.052s-0.153 0.084-0.214 0.147l-3.961 3.961c-0.265 0.254-0.265 0.673 0 0.938zM10.135 22.088l2.606 2.607 10.633-14.389-0.723-0.723-12.516 12.504z"></path>
</symbol>
<symbol id="icon-twitter" viewBox="0 0 32 32">
<path d="M21.12 2.699c-1.139 0.208-1.597 0.345-2.32 0.691-0.881 0.423-1.711 1.045-2.281 1.713-1.116 1.307-1.719 2.749-1.829 4.375l-0.037 0.545-0.247-0.029c-2.089-0.245-3.967-0.879-5.401-1.824-1.385-0.913-3.087-2.579-4.421-4.329-0.42-0.552-0.46-0.592-0.753-0.748-0.281-0.149-0.595-0.135-0.979 0.048-0.427 0.201-0.661 0.481-0.839 1.005-0.289 0.845-0.584 2.247-0.768 3.643-0.131 1.001-0.131 3.52 0 4.496 0.248 1.852 0.669 3.263 1.429 4.783 1.073 2.147 2.591 3.856 4.687 5.277l0.533 0.361-0.413 0.175c-1.621 0.708-3.509 1.12-5.494 1.12-0.014 0-0.028-0-0.042-0h0.002c-0.499 0-0.993 0.025-1.1 0.055-0.303 0.080-0.547 0.283-0.681 0.551l-0.003 0.006c-0.112 0.22-0.136 0.339-0.136 0.693 0 0.368 0.020 0.463 0.144 0.673 0.187 0.319 0.353 0.439 1.189 0.864 2.073 1.053 3.952 1.695 6.107 2.085 1.405 0.255 3.689 0.367 5.073 0.249 1.737-0.148 3.2-0.451 4.66-0.963 4.72-1.656 8.313-4.949 10.36-9.495 1.125-2.501 1.692-5.183 1.745-8.279l0.020-1.107 0.331-0.404c0.981-1.199 1.74-2.623 2.187-4.178l0.021-0.083c0.296-1.037 0.107-1.599-0.637-1.884-0.567-0.217-0.884-0.155-1.635 0.327-0.333 0.212-0.833 0.509-1.112 0.659-0.505 0.272-1.491 0.709-1.597 0.709-0.031 0-0.276-0.167-0.544-0.371-0.795-0.603-1.821-1.063-2.927-1.309-0.387-0.085-1.988-0.156-2.292-0.101zM22.863 5.411c1.027 0.219 1.86 0.692 2.631 1.496 0.32 0.333 0.565 0.453 0.928 0.453 0.241 0 0.819-0.143 1.252-0.308 0.119-0.047-0.067 0.2-0.54 0.713-0.545 0.592-0.613 0.777-0.529 1.455 0.155 1.251-0.004 3.307-0.396 5.127-0.557 2.536-1.634 4.76-3.12 6.648l0.027-0.035c-0.465 0.588-1.736 1.851-2.315 2.3-1.041 0.808-2.456 1.639-3.573 2.1-1.347 0.565-2.91 0.97-4.542 1.139l-0.072 0.006c-0.797 0.077-2.567 0.064-3.413-0.025-0.892-0.095-2.080-0.303-2.48-0.435-0.044-0.015 0.196-0.119 0.533-0.229 0.912-0.3 1.688-0.636 2.427-1.033l-0.080 0.039c0.98-0.499 1.844-1.036 2.064-1.283 0.297-0.333 0.461-1.024 0.323-1.355-0.155-0.371-0.339-0.516-1.177-0.925-3.961-1.94-6.103-4.66-6.828-8.673-0.161-0.895-0.211-1.697-0.179-2.959 0.028-1.085 0.061-1.507 0.172-2.144l0.029-0.171 0.464 0.483c0.629 0.634 1.287 1.235 1.975 1.802l0.045 0.036c1.865 1.5 4.248 2.508 6.856 2.904 0.868 0.131 2.787 0.197 3.115 0.108 0.308-0.077 0.561-0.274 0.71-0.537l0.003-0.006c0.128-0.229 0.133-0.281 0.168-1.597 0.029-1.168 0.051-1.416 0.151-1.76 0.483-1.68 1.831-2.957 3.518-3.329l0.031-0.006c0.432-0.095 1.379-0.096 1.823-0.001z"></path>
</symbol>
<symbol id="icon-instagram" viewBox="0 0 32 32">
<path d="M8.507 1.391c-1.921 0.197-3.611 1.058-4.863 2.347l-0.002 0.002c-1.258 1.255-2.088 2.938-2.254 4.812l-0.002 0.030c-0.065 0.672-0.065 14.165 0 14.837 0.175 1.951 1.043 3.671 2.353 4.938l0.002 0.002c1.255 1.258 2.938 2.088 4.812 2.254l0.030 0.002c0.672 0.065 14.165 0.065 14.837 0 1.903-0.168 3.586-0.998 4.841-2.256l0-0c1.312-1.269 2.179-2.989 2.352-4.91l0.002-0.030c0.065-0.672 0.065-14.165 0-14.837-0.175-1.951-1.043-3.671-2.352-4.938l-0.002-0.002c-1.255-1.258-2.938-2.088-4.812-2.254l-0.030-0.002c-0.619-0.060-14.299-0.056-14.912 0.005zM23.697 4.111c2.122 0.426 3.767 2.071 4.188 4.159l0.006 0.034c0.107 0.529 0.109 0.68 0.109 7.696 0 7.021-0.003 7.167-0.111 7.697-0.426 2.122-2.071 3.767-4.159 4.188l-0.034 0.006c-0.529 0.107-0.68 0.109-7.696 0.109s-7.167-0.003-7.696-0.109c-2.122-0.426-3.767-2.071-4.188-4.159l-0.006-0.034c-0.108-0.531-0.111-0.676-0.111-7.697s0.003-7.167 0.111-7.697c0.426-2.11 2.054-3.748 4.125-4.183l0.035-0.006c0.485-0.103 0.743-0.105 7.695-0.109 7.064-0.004 7.201-0.003 7.732 0.107zM23.011 7.359c-0.688 0.103-0.993 0.503-0.997 1.308-0.004 0.912 0.4 1.316 1.319 1.32 0.479 0.001 0.761-0.089 1.005-0.323 0.247-0.235 0.321-0.464 0.324-0.997 0.003-0.54-0.097-0.808-0.391-1.056-0.271-0.227-0.763-0.325-1.26-0.252zM14.827 9.388c-2.787 0.535-4.903 2.719-5.367 5.537-0.1 0.608-0.075 1.739 0.053 2.328 0.264 1.296 0.878 2.42 1.74 3.301l-0.001-0.001c1.205 1.261 2.744 1.959 4.508 2.044 3.371 0.161 6.323-2.233 6.883-5.584 0.109-0.653 0.083-1.816-0.057-2.453-0.197-0.905-0.64-1.899-1.149-2.573-0.423-0.534-0.89-1.002-1.405-1.412l-0.018-0.013c-0.449-0.341-1.511-0.868-2.040-1.013-1.024-0.281-2.205-0.341-3.147-0.16zM16.789 12.028c1.052 0.2 2.011 0.839 2.62 1.747 0.431 0.643 0.679 1.596 0.627 2.412-0.064 0.997-0.447 1.827-1.183 2.567-0.413 0.416-0.556 0.521-0.988 0.729-0.712 0.344-1.075 0.429-1.812 0.427-1.155-0.003-1.988-0.349-2.801-1.161-0.811-0.811-1.156-1.641-1.164-2.801-0.004-0.732 0.115-1.223 0.459-1.891 0.311-0.601 1.017-1.307 1.613-1.612 0.921-0.471 1.696-0.593 2.629-0.416z"></path>
</symbol>
<symbol id="icon-logo" viewBox="0 0 32 32">
<path fill="none" stroke="#fd9222" stroke-width="2.6667" stroke-miterlimit="4" stroke-linecap="round" stroke-linejoin="round" style="stroke: var(--color2, #fd9222)" d="M22.301 23.88l-14.185-8.864M12.028 8.599l14.185 8.864M11.297 25.864l11.736-19.25M27.843 14.789c-3.040-1.899-4.234-3.384-2.278-6.592l-9.626-6.015-11.736 19.25 14.186 8.864 9.454-15.507z"></path>
</symbol>
<symbol id="icon-vector-skrol-b" viewBox="0 0 32 32">
<path d="M16.947 17.867c-0.124 0.125-0.271 0.224-0.434 0.292s-0.337 0.103-0.513 0.103-0.35-0.035-0.513-0.103c-0.162-0.068-0.31-0.167-0.434-0.292l-6.107-6.12c-0.124-0.125-0.271-0.224-0.434-0.292s-0.337-0.103-0.513-0.103c-0.176 0-0.35 0.035-0.513 0.103s-0.31 0.167-0.434 0.292c-0.248 0.25-0.388 0.588-0.388 0.94s0.139 0.69 0.388 0.94l6.12 6.12c0.75 0.749 1.767 1.17 2.827 1.17s2.077-0.421 2.827-1.17l6.12-6.12c0.246-0.248 0.385-0.584 0.387-0.933 0.001-0.175-0.033-0.349-0.099-0.512s-0.164-0.31-0.288-0.435c-0.124-0.125-0.271-0.224-0.434-0.292s-0.337-0.103-0.513-0.103-0.35 0.035-0.513 0.103c-0.162 0.068-0.31 0.167-0.434 0.292l-6.107 6.12z"></path>
</symbol>
<symbol id="icon-flag" viewBox="0 0 31 32">
<path fill="#ffd700" style="fill: var(--color1, #ffd700)" d="M30.559 5.496h-30.326v22.568h30.326v-22.568z"></path>
<path fill="#0057b7" style="fill: var(--color2, #0057b7)" d="M0.233 5.496h30.326v11.284h-30.326v-11.284z"></path>
</symbol>
<symbol id="icon-x-close" viewBox="0 0 32 32">
<path stroke-linejoin="round" stroke-linecap="round" stroke-miterlimit="4" stroke-width="2.6667" d="M24 8l-16 16"></path>
<path stroke-linejoin="round" stroke-linecap="round" stroke-miterlimit="4" stroke-width="2.6667" d="M8 8l16 16"></path>
</symbol>
</defs>
</svg>
